<svg id="Thumbnail" xmlns="http://www.w3.org/2000/svg" viewBox="0 0 46 40"><defs><style>.cls-1{fill:#556a8a;}.cls-2{fill:#80def9;}.cls-3{fill:#e5e5e5;}</style></defs><title>Icon_hybrid</title><g id="Shape"><rect class="cls-1" x="9.5" y="8.59" width="2" height="2"/><rect class="cls-1" x="5.5" y="8.59" width="2" height="2"/><rect class="cls-1" x="5.5" y="12.59" width="2" height="2"/><rect class="cls-1" x="9.5" y="12.59" width="2" height="2"/><rect class="cls-1" x="9.5" y="16.59" width="2" height="2"/><rect class="cls-1" x="5.5" y="16.59" width="2" height="2"/><rect class="cls-1" x="5.5" y="20.59" width="2" height="2"/><rect class="cls-1" x="9.5" y="20.59" width="2" height="2"/><rect class="cls-1" x="9.5" y="24.59" width="2" height="2"/><rect class="cls-1" x="5.5" y="24.59" width="2" height="2"/><path class="cls-1" d="M15.5,12.59v-8H1.5v32h26v-24Zm-2,22H3.5v-28h10v28Zm12,0h-10v-20h10Z"/><rect class="cls-1" x="21.5" y="16.59" width="2" height="2"/><rect class="cls-1" x="17.5" y="16.59" width="2" height="2"/><rect class="cls-1" x="17.5" y="20.59" width="2" height="2"/><rect class="cls-1" x="21.5" y="20.59" width="2" height="2"/><rect class="cls-1" x="21.5" y="24.59" width="2" height="2"/><rect class="cls-1" x="17.5" y="24.59" width="2" height="2"/><rect class="cls-1" x="9.5" y="28.59" width="2" height="2"/><rect class="cls-1" x="5.5" y="28.59" width="2" height="2"/><rect class="cls-1" x="21.5" y="28.59" width="2" height="2"/><rect class="cls-1" x="17.5" y="28.59" width="2" height="2"/><path class="cls-2" d="M27.5,36.59H38.4a4.9,4.9,0,0,0,2-.4A5.21,5.21,0,0,0,42,35.09a5,5,0,0,0,1.09-1.62,4.83,4.83,0,0,0,.4-2A5.06,5.06,0,0,0,42,27.87a5.18,5.18,0,0,0-3.63-1.48,7.74,7.74,0,0,0-.84-2.7,7.91,7.91,0,0,0-1.67-2.16,7.62,7.62,0,0,0-2.32-1.42,7.39,7.39,0,0,0-2.78-.52,7.57,7.57,0,0,0-1.91.24,7.65,7.65,0,0,0-1.34.49"/><polygon class="cls-1" points="39.33 7.59 39.33 5.59 29.33 5.59 31.91 3 30.5 1.59 25.5 6.59 30.5 11.59 31.91 10.17 29.33 7.59 39.33 7.59"/><polygon class="cls-1" points="30.67 15.59 30.67 13.59 40.67 13.59 38.09 11 39.5 9.59 44.5 14.59 39.5 19.59 38.09 18.17 40.67 15.59 30.67 15.59"/><rect class="cls-3" x="3.5" y="6.59" width="1.5" height="28"/><rect class="cls-3" x="15.5" y="14.59" width="1.5" height="20"/></g></svg>