<svg xmlns="http://www.w3.org/2000/svg" viewBox="0 0 1155.21 1074.86"><defs><style>.cls-1{isolation:isolate;}.cls-2{fill:#fff;}.cls-3{fill:#254c88;}.cls-4{fill:#214987;}.cls-5{fill:#b8b8b8;opacity:0.5;mix-blend-mode:multiply;}.cls-6{fill:#285497;}</style></defs><title>word</title><g class="cls-1"><g id="Layer_2" data-name="Layer 2"><g id="Layer_1-2" data-name="Layer 1"><path class="cls-2" d="M1139.35,112.76h-.27l.27.17Z"/><polygon class="cls-2" points="1040.85 223.02 1040.85 264.16 744.47 264.16 744.47 339.59 1040.85 339.59 1040.85 380.73 744.47 380.73 744.47 456.17 1040.85 456.17 1040.85 497.31 744.47 497.31 744.47 572.74 1040.85 572.74 1040.85 613.88 744.47 613.88 744.47 689.31 1040.85 689.31 1040.85 730.45 744.47 730.45 744.47 805.89 1040.85 805.89 1040.85 847.03 744.47 847.03 744.47 939 1119.21 939 1119.21 142.78 744.47 142.78 744.47 223.02 1040.85 223.02"/><path class="cls-3" d="M1139.35,112.93l-.27-.17a35.81,35.81,0,0,0-19.87-6H644.35v1.59H744.47v34.41h374.74V939H744.47v34.32H644.35V975h474.86a36,36,0,0,0,36-36V142.78A36,36,0,0,0,1139.35,112.93Z"/><rect class="cls-4" x="744.47" y="223.02" width="296.38" height="41.14"/><rect class="cls-4" x="744.47" y="339.59" width="296.38" height="41.14"/><rect class="cls-4" x="744.47" y="456.17" width="296.38" height="41.14"/><rect class="cls-4" x="744.47" y="572.74" width="296.38" height="41.14"/><rect class="cls-4" x="744.47" y="689.31" width="296.38" height="41.14"/><rect class="cls-4" x="744.47" y="805.89" width="296.38" height="41.14"/><rect class="cls-2" x="644.35" y="497.31" width="100.12" height="75.43"/><rect class="cls-5" x="644.35" y="497.31" width="100.12" height="75.43"/><rect class="cls-2" x="644.35" y="613.88" width="100.12" height="75.43"/><rect class="cls-5" x="644.35" y="613.88" width="100.12" height="75.43"/><rect class="cls-2" x="644.35" y="730.45" width="100.12" height="75.43"/><rect class="cls-5" x="644.35" y="730.45" width="100.12" height="75.43"/><rect class="cls-2" x="644.35" y="847.03" width="100.12" height="91.97"/><rect class="cls-5" x="644.35" y="847.03" width="100.12" height="91.97"/><rect class="cls-2" x="644.35" y="142.78" width="100.12" height="80.24"/><rect class="cls-5" x="644.35" y="142.78" width="100.12" height="80.24"/><rect class="cls-2" x="644.35" y="264.16" width="100.12" height="75.43"/><rect class="cls-5" x="644.35" y="264.16" width="100.12" height="75.43"/><rect class="cls-2" x="644.35" y="380.73" width="100.12" height="75.43"/><rect class="cls-5" x="644.35" y="380.73" width="100.12" height="75.43"/><rect class="cls-3" x="644.35" y="108.37" width="100.12" height="34.42"/><rect class="cls-5" x="644.35" y="108.37" width="100.12" height="34.42"/><rect class="cls-3" x="644.35" y="939" width="100.12" height="34.32"/><rect class="cls-5" x="644.35" y="939" width="100.12" height="34.32"/><rect class="cls-4" x="644.35" y="223.02" width="100.12" height="41.14"/><rect class="cls-5" x="644.35" y="223.02" width="100.12" height="41.14"/><rect class="cls-4" x="644.35" y="339.59" width="100.12" height="41.14"/><rect class="cls-5" x="644.35" y="339.59" width="100.12" height="41.14"/><rect class="cls-4" x="644.35" y="456.17" width="100.12" height="41.14"/><rect class="cls-5" x="644.35" y="456.17" width="100.12" height="41.14"/><rect class="cls-4" x="644.35" y="572.74" width="100.12" height="41.14"/><rect class="cls-5" x="644.35" y="572.74" width="100.12" height="41.14"/><rect class="cls-4" x="644.35" y="689.31" width="100.12" height="41.14"/><rect class="cls-5" x="644.35" y="689.31" width="100.12" height="41.14"/><rect class="cls-4" x="644.35" y="805.89" width="100.12" height="41.14"/><rect class="cls-5" x="644.35" y="805.89" width="100.12" height="41.14"/><path class="cls-6" d="M644.35,939V0L0,103.34V969.05l644.35,105.81V939ZM182,688.65,106.43,361.59l69.16-4L218.25,582.8l55.81-229.36,70.35-3L404.6,582.8l48.62-238.32,79.35-5L443.06,702l-70.92-3-65.2-227.13L254.52,692.65Z"/><polygon class="cls-2" points="306.94 471.91 372.14 699.03 443.06 702.03 532.57 339.48 453.22 344.48 404.6 582.8 344.41 350.44 274.06 353.44 218.25 582.8 175.59 357.6 106.43 361.6 181.97 688.65 254.52 692.65 306.94 471.91"/></g></g></g></svg>