<?xml version="1.0" encoding="utf-8"?>
<!-- Generator: Adobe Illustrator 21.1.0, SVG Export Plug-In . SVG Version: 6.00 Build 0)  -->
<svg version="1.1" id="Layer_1" xmlns="http://www.w3.org/2000/svg" xmlns:xlink="http://www.w3.org/1999/xlink" x="0px" y="0px"
	 viewBox="0 0 48 24.2" style="enable-background:new 0 0 48 24.2;" xml:space="preserve">
<style type="text/css">
	.st0{fill:#52AFE6;}
</style>
<title>Asset 1</title>
<g id="_Desktop_-AppBridge.io-">
	<g id="Draftboard">
		<g id="Box-logo">
			<g>
				<path id="path4185" class="st0" d="M45.6,21l-4.5-5.5l4.5-5.5c0.5-0.7,0.4-1.7-0.3-2.2c0,0-0.1-0.1-0.1-0.1
					c-0.8-0.5-1.9-0.4-2.5,0.3l0,0l-3.9,4.7L35,8l0,0c-0.6-0.7-1.7-0.8-2.5-0.3c-0.7,0.5-0.9,1.4-0.5,2.2c0,0,0.1,0.1,0.1,0.1l0,0
					l4.5,5.5L32.1,21l0,0c-0.5,0.7-0.4,1.7,0.2,2.2c0,0,0.1,0.1,0.1,0.1c0.8,0.5,1.9,0.4,2.5-0.3l3.8-4.7l3.8,4.7
					c0.6,0.7,1.7,0.8,2.5,0.3c0.7-0.5,0.9-1.4,0.5-2.2C45.6,21.1,45.6,21,45.6,21 M24.6,20.5c-2.7,0-4.9-2.2-4.9-4.9
					c0-2.7,2.2-4.9,4.9-4.9c2.7,0,4.9,2.2,4.9,4.9S27.3,20.5,24.6,20.5L24.6,20.5 M10,20.5c-2.7,0-4.9-2.2-4.9-4.9s2.2-4.9,4.9-4.9
					c2.7,0,4.9,2.2,4.9,4.9S12.7,20.5,10,20.5L10,20.5 M24.5,7.3c-3.1,0-5.9,1.7-7.3,4.4c-2.1-4-7.1-5.6-11.1-3.4
					C5.7,8.4,5.4,8.7,5,8.9V2C4.9,1.1,4.1,0.4,3.2,0.5C2.4,0.5,1.8,1.2,1.7,2v13.7l0,0c0.1,4.6,3.8,8.2,8.4,8.1c3,0,5.7-1.7,7.2-4.4
					c2.1,4,7.1,5.6,11.1,3.4s5.6-7.1,3.4-11.1C30.4,9,27.6,7.3,24.5,7.3"/>
			</g>
		</g>
	</g>
</g>
</svg>
